<svg xmlns="http://www.w3.org/2000/svg" viewBox="0 0 512 512" role="img" aria-label="Poker Timer">
  <rect width="512" height="512" rx="96" fill="#090909"/>
  <circle cx="256" cy="256" r="184" fill="#d7a947"/>
  <circle cx="256" cy="256" r="126" fill="#111111"/>
  <circle cx="256" cy="256" r="92" fill="#1f7a4d"/>
  <g fill="#090909">
    <rect x="232" y="56" width="48" height="104" rx="18"/>
    <rect x="232" y="352" width="48" height="104" rx="18"/>
    <rect x="352" y="232" width="104" height="48" rx="18"/>
    <rect x="56" y="232" width="104" height="48" rx="18"/>
  </g>
  <path fill="#f7f3e8" d="M256 158c54 0 98 44 98 98s-44 98-98 98-98-44-98-98 44-98 98-98Zm0 48a50 50 0 1 0 0 100 50 50 0 0 0 0-100Z"/>
</svg>
